<svg xmlns="http://www.w3.org/2000/svg" width="1037.001" height="533.002" viewBox="0 0 1037.001 533.002">
  <g id="Raggruppa_82" data-name="Raggruppa 82" transform="translate(-754 -3521)">
    <path id="Tracciato_633" data-name="Tracciato 633" d="M26.174,9.008A9.683,9.683,0,0,1,32.432,11a9.1,9.1,0,0,1,3.206,5.376H30.57a4.65,4.65,0,0,0-1.722-2.156,4.813,4.813,0,0,0-2.758-.784,4.2,4.2,0,0,0-3.388,1.54,6.209,6.209,0,0,0-1.288,4.116,6.153,6.153,0,0,0,1.288,4.1,4.217,4.217,0,0,0,3.388,1.526,4.813,4.813,0,0,0,2.758-.784A4.67,4.67,0,0,0,30.57,21.8h5.068a9.146,9.146,0,0,1-3.206,5.362,9.638,9.638,0,0,1-6.258,2,9.874,9.874,0,0,1-5.068-1.274,8.648,8.648,0,0,1-3.374-3.57,11.213,11.213,0,0,1-1.19-5.236,11.213,11.213,0,0,1,1.19-5.236,8.648,8.648,0,0,1,3.374-3.57A9.874,9.874,0,0,1,26.174,9.008ZM37.626,25.192q8.9-6.356,8.9-10.108,0-2.3-1.988-2.3a1.821,1.821,0,0,0-1.638.784,4.807,4.807,0,0,0-.574,2.436H37.654a7.444,7.444,0,0,1,2.184-5.432,7.317,7.317,0,0,1,5.1-1.82,6.625,6.625,0,0,1,4.858,1.624,5.693,5.693,0,0,1,1.638,4.228,8.958,8.958,0,0,1-2.212,5.642,20.627,20.627,0,0,1-5.292,4.662h7.812v3.864H37.626Z" transform="translate(1386 3768)" fill="#ac4b45"/>
    <path id="Tracciato_625" data-name="Tracciato 625" d="M14,113H0V0H114l56,56.5L114,113Z" transform="translate(754 3941)" fill="#33373a"/>
    <path id="Tracciato_631" data-name="Tracciato 631" d="M18.12,15l-2.142-3.738h-.546V15H13.038V5.1h4.088a4.413,4.413,0,0,1,1.988.406,2.8,2.8,0,0,1,1.218,1.113,3.188,3.188,0,0,1,.406,1.617,2.874,2.874,0,0,1-.595,1.834,3.041,3.041,0,0,1-1.729,1.036L20.766,15ZM15.432,9.624h1.484a1.5,1.5,0,0,0,1.05-.315,1.216,1.216,0,0,0,.336-.931,1.234,1.234,0,0,0-.343-.924,1.437,1.437,0,0,0-1.043-.336H15.432Zm13.93,1.26a3.3,3.3,0,0,1-.07.644H23.874a1.811,1.811,0,0,0,.448,1.267,1.445,1.445,0,0,0,1.036.385,1.416,1.416,0,0,0,.882-.266,1.242,1.242,0,0,0,.462-.686h2.534a3.311,3.311,0,0,1-.672,1.477,3.582,3.582,0,0,1-1.316,1.022,4.494,4.494,0,0,1-3.815-.112,3.451,3.451,0,0,1-1.393-1.393,4.322,4.322,0,0,1-.5-2.128,4.361,4.361,0,0,1,.5-2.135,3.406,3.406,0,0,1,1.393-1.386,4.6,4.6,0,0,1,4.088-.007A3.363,3.363,0,0,1,28.879,8.9,3.98,3.98,0,0,1,29.362,10.884ZM26.94,10.52a1.439,1.439,0,0,0-.413-1.155A1.52,1.52,0,0,0,25.47,8.98a1.568,1.568,0,0,0-1.092.392,1.641,1.641,0,0,0-.49,1.148Zm7.2-3.43a3.88,3.88,0,0,1,2.534.833,3.694,3.694,0,0,1,1.288,2.289H35.424a1.337,1.337,0,0,0-.462-.784,1.367,1.367,0,0,0-.882-.28,1.279,1.279,0,0,0-1.036.5,2.243,2.243,0,0,0-.406,1.449,2.243,2.243,0,0,0,.406,1.449,1.279,1.279,0,0,0,1.036.5,1.367,1.367,0,0,0,.882-.28,1.337,1.337,0,0,0,.462-.784h2.534a3.694,3.694,0,0,1-1.288,2.289,3.88,3.88,0,0,1-2.534.833,4.2,4.2,0,0,1-2.037-.483,3.451,3.451,0,0,1-1.393-1.393,4.322,4.322,0,0,1-.5-2.128,4.361,4.361,0,0,1,.5-2.135,3.406,3.406,0,0,1,1.393-1.386A4.239,4.239,0,0,1,34.136,7.09Zm8.722,0a4.393,4.393,0,0,1,2.079.483,3.541,3.541,0,0,1,1.442,1.393,4.183,4.183,0,0,1,.525,2.128,4.183,4.183,0,0,1-.525,2.128,3.541,3.541,0,0,1-1.442,1.393,4.731,4.731,0,0,1-4.165,0,3.53,3.53,0,0,1-1.449-1.393,4.183,4.183,0,0,1-.525-2.128,4.183,4.183,0,0,1,.525-2.128,3.53,3.53,0,0,1,1.449-1.393A4.435,4.435,0,0,1,42.858,7.09Zm0,2.072a1.525,1.525,0,0,0-1.155.5,2.013,2.013,0,0,0-.469,1.435,1.987,1.987,0,0,0,.469,1.428,1.536,1.536,0,0,0,1.155.49,1.514,1.514,0,0,0,1.148-.49,2.006,2.006,0,0,0,.462-1.428,2.033,2.033,0,0,0-.462-1.435A1.5,1.5,0,0,0,42.858,9.162ZM53.106,7.1a2.7,2.7,0,0,1,2.135.9,3.594,3.594,0,0,1,.791,2.464V15H53.638V10.744a1.722,1.722,0,0,0-.413-1.225,1.434,1.434,0,0,0-1.1-.441,1.5,1.5,0,0,0-1.155.462,1.869,1.869,0,0,0-.427,1.316V15H48.15V7.188h2.394V8.616a2.577,2.577,0,0,1,1-1.106A2.936,2.936,0,0,1,53.106,7.1Z" transform="translate(805 3988)" fill="#fff"/>
    <path id="Tracciato_634" data-name="Tracciato 634" d="M307,113l-107,0H11v-1h4v-2h5v-8H66V8H20V2H138.983L137,0H307l56,56.5L307,113h0Z" transform="translate(1428 3941)" fill="#703330"/>
    <path id="Tracciato_637" data-name="Tracciato 637" d="M29.088,7.006V9.078h3.346v1.806H29.088v2.2h3.766V15h-6.16V5.1h6.16v1.9ZM39.1,15l-1.6-2.226L36.2,15H33.568l2.59-4.074L33.47,7.188h2.688l1.582,2.2,1.3-2.2h2.632l-2.646,3.976L41.786,15Zm7.42-8.876a1.213,1.213,0,0,0-.854.252,1.16,1.16,0,0,0-.294.812h1.414V9.2H45.37V15H42.976V9.2h-.938V7.188h.938V7.1a2.924,2.924,0,0,1,.847-2.247,3.472,3.472,0,0,1,2.457-.791q.336,0,.5.014V6.138ZM47.61,4.99a1.169,1.169,0,0,1,.392-.9,1.682,1.682,0,0,1,2.072,0,1.169,1.169,0,0,1,.392.9,1.153,1.153,0,0,1-.392.889,1.682,1.682,0,0,1-2.072,0A1.153,1.153,0,0,1,47.61,4.99Zm2.618,2.2V15H47.834V7.188ZM54.274,4.64V15H51.88V4.64Zm6.076,8.3V15H59.272a3.1,3.1,0,0,1-2.135-.679,2.878,2.878,0,0,1-.763-2.247V9.2h-1.05V7.188h1.05V5.27h2.394V7.188h1.568V9.2H58.768v2.912a.877.877,0,0,0,.189.644.9.9,0,0,0,.637.182Zm3.738-4.284a3.4,3.4,0,0,1,1.155-1.134,2.949,2.949,0,0,1,1.533-.42V9.666H66.09a2.366,2.366,0,0,0-1.477.406,1.631,1.631,0,0,0-.525,1.372V15H61.694V7.188h2.394ZM70.752,7.09a2.828,2.828,0,0,1,1.54.406A2.441,2.441,0,0,1,73.244,8.6V7.188h2.38V15h-2.38V13.586a2.441,2.441,0,0,1-.952,1.106,2.828,2.828,0,0,1-1.54.406,3.164,3.164,0,0,1-1.729-.483,3.3,3.3,0,0,1-1.2-1.393,4.828,4.828,0,0,1-.441-2.128,4.817,4.817,0,0,1,.441-2.135,3.312,3.312,0,0,1,1.2-1.386A3.164,3.164,0,0,1,70.752,7.09Zm.77,2.1a1.613,1.613,0,0,0-1.239.5,1.976,1.976,0,0,0-.469,1.4,1.976,1.976,0,0,0,.469,1.4,1.758,1.758,0,0,0,2.478-.014,1.951,1.951,0,0,0,.483-1.386A1.946,1.946,0,0,0,72.761,9.7,1.629,1.629,0,0,0,71.522,9.19ZM81.7,12.942V15H80.622a3.1,3.1,0,0,1-2.135-.679,2.878,2.878,0,0,1-.763-2.247V9.2h-1.05V7.188h1.05V5.27h2.394V7.188h1.568V9.2H80.118v2.912a.877.877,0,0,0,.189.644.9.9,0,0,0,.637.182Zm8.764-2.058a3.3,3.3,0,0,1-.07.644H84.976a1.811,1.811,0,0,0,.448,1.267,1.445,1.445,0,0,0,1.036.385,1.416,1.416,0,0,0,.882-.266,1.242,1.242,0,0,0,.462-.686h2.534a3.311,3.311,0,0,1-.672,1.477,3.582,3.582,0,0,1-1.316,1.022,4.494,4.494,0,0,1-3.815-.112,3.451,3.451,0,0,1-1.393-1.393,4.322,4.322,0,0,1-.5-2.128,4.361,4.361,0,0,1,.5-2.135,3.406,3.406,0,0,1,1.393-1.386,4.6,4.6,0,0,1,4.088-.007A3.363,3.363,0,0,1,89.981,8.9,3.98,3.98,0,0,1,90.464,10.884Zm-2.422-.364a1.439,1.439,0,0,0-.413-1.155,1.52,1.52,0,0,0-1.057-.385,1.568,1.568,0,0,0-1.092.392,1.641,1.641,0,0,0-.49,1.148Zm9.436-3.43a2.828,2.828,0,0,1,1.54.406A2.441,2.441,0,0,1,99.97,8.6V7.188h2.38V15H99.97V13.586a2.441,2.441,0,0,1-.952,1.106,2.828,2.828,0,0,1-1.54.406,3.164,3.164,0,0,1-1.729-.483,3.3,3.3,0,0,1-1.2-1.393,4.828,4.828,0,0,1-.441-2.128,4.817,4.817,0,0,1,.441-2.135,3.312,3.312,0,0,1,1.2-1.386A3.164,3.164,0,0,1,97.478,7.09Zm.77,2.1a1.613,1.613,0,0,0-1.239.5,1.976,1.976,0,0,0-.469,1.4,1.976,1.976,0,0,0,.469,1.4,1.758,1.758,0,0,0,2.478-.014,1.951,1.951,0,0,0,.483-1.386A1.946,1.946,0,0,0,99.487,9.7,1.629,1.629,0,0,0,98.248,9.19ZM108.958,7.1a2.7,2.7,0,0,1,2.135.9,3.594,3.594,0,0,1,.791,2.464V15H109.49V10.744a1.722,1.722,0,0,0-.413-1.225,1.434,1.434,0,0,0-1.1-.441,1.5,1.5,0,0,0-1.155.462,1.869,1.869,0,0,0-.427,1.316V15H104V7.188H106.4V8.616a2.577,2.577,0,0,1,1-1.106A2.936,2.936,0,0,1,108.958,7.1Zm7.476-.014a2.828,2.828,0,0,1,1.54.406,2.358,2.358,0,0,1,.938,1.106V4.64h2.394V15h-2.394V13.586a2.358,2.358,0,0,1-.938,1.106,2.828,2.828,0,0,1-1.54.406,3.164,3.164,0,0,1-1.729-.483,3.3,3.3,0,0,1-1.2-1.393,4.828,4.828,0,0,1-.441-2.128,4.817,4.817,0,0,1,.441-2.135,3.312,3.312,0,0,1,1.2-1.386A3.164,3.164,0,0,1,116.434,7.09Zm.77,2.1a1.613,1.613,0,0,0-1.239.5,1.976,1.976,0,0,0-.469,1.4,1.976,1.976,0,0,0,.469,1.4,1.758,1.758,0,0,0,2.478-.014,1.951,1.951,0,0,0,.483-1.386,1.946,1.946,0,0,0-.483-1.393A1.629,1.629,0,0,0,117.2,9.19ZM15.039,23A4.842,4.842,0,0,1,18.168,24a4.548,4.548,0,0,1,1.6,2.688H17.237a2.325,2.325,0,0,0-.861-1.078A2.407,2.407,0,0,0,15,25.216a2.1,2.1,0,0,0-1.694.77,3.1,3.1,0,0,0-.644,2.058,3.076,3.076,0,0,0,.644,2.051A2.109,2.109,0,0,0,15,30.858a2.407,2.407,0,0,0,1.379-.392,2.335,2.335,0,0,0,.861-1.064h2.534a4.573,4.573,0,0,1-1.6,2.681,4.819,4.819,0,0,1-3.129,1,4.937,4.937,0,0,1-2.534-.637,4.324,4.324,0,0,1-1.687-1.785,6.057,6.057,0,0,1,0-5.236,4.324,4.324,0,0,1,1.687-1.785A4.937,4.937,0,0,1,15.039,23Zm9.73,2.086a4.393,4.393,0,0,1,2.079.483,3.541,3.541,0,0,1,1.442,1.393,4.575,4.575,0,0,1,0,4.256,3.541,3.541,0,0,1-1.442,1.393,4.731,4.731,0,0,1-4.165,0,3.53,3.53,0,0,1-1.449-1.393,4.575,4.575,0,0,1,0-4.256,3.53,3.53,0,0,1,1.449-1.393A4.435,4.435,0,0,1,24.769,25.09Zm0,2.072a1.525,1.525,0,0,0-1.155.5,2.013,2.013,0,0,0-.469,1.435,1.987,1.987,0,0,0,.469,1.428,1.536,1.536,0,0,0,1.155.49,1.514,1.514,0,0,0,1.148-.49,2.006,2.006,0,0,0,.462-1.428,2.033,2.033,0,0,0-.462-1.435A1.5,1.5,0,0,0,24.769,27.162ZM40.183,25.1a2.944,2.944,0,0,1,2.268.889,3.491,3.491,0,0,1,.826,2.471V33H40.9V28.744a1.594,1.594,0,0,0-.4-1.155,1.438,1.438,0,0,0-1.085-.413,1.469,1.469,0,0,0-1.127.441,1.743,1.743,0,0,0-.413,1.239V33H35.479V28.744a1.611,1.611,0,0,0-.392-1.155,1.415,1.415,0,0,0-1.078-.413,1.5,1.5,0,0,0-1.134.434,1.72,1.72,0,0,0-.42,1.246V33H30.061V25.188h2.394v1.33a2.331,2.331,0,0,1,.945-1.036,2.867,2.867,0,0,1,1.491-.378,3.007,3.007,0,0,1,1.582.413A2.594,2.594,0,0,1,37.509,26.7a3.129,3.129,0,0,1,1.113-1.162A2.926,2.926,0,0,1,40.183,25.1Zm9.562-.014a3.164,3.164,0,0,1,1.729.483,3.312,3.312,0,0,1,1.2,1.386,5.372,5.372,0,0,1,0,4.263,3.3,3.3,0,0,1-1.2,1.393,3.164,3.164,0,0,1-1.729.483,2.828,2.828,0,0,1-1.54-.406,2.358,2.358,0,0,1-.938-1.106v5.138H44.873V25.188h2.394V26.6a2.358,2.358,0,0,1,.938-1.106A2.828,2.828,0,0,1,49.745,25.09Zm-.77,2.1a1.629,1.629,0,0,0-1.239.511,2.24,2.24,0,0,0,0,2.779,1.758,1.758,0,0,0,2.478.014,2.324,2.324,0,0,0,0-2.8A1.613,1.613,0,0,0,48.975,27.19Zm7.784-4.55V33H54.365V22.64Zm9.072,6.244a3.3,3.3,0,0,1-.07.644H60.343a1.811,1.811,0,0,0,.448,1.267,1.445,1.445,0,0,0,1.036.385,1.416,1.416,0,0,0,.882-.266,1.242,1.242,0,0,0,.462-.686h2.534a3.311,3.311,0,0,1-.672,1.477,3.582,3.582,0,0,1-1.316,1.022,4.494,4.494,0,0,1-3.815-.112,3.451,3.451,0,0,1-1.393-1.393,4.789,4.789,0,0,1-.007-4.263A3.406,3.406,0,0,1,59.9,25.573a4.6,4.6,0,0,1,4.088-.007A3.363,3.363,0,0,1,65.348,26.9,3.98,3.98,0,0,1,65.831,28.884Zm-2.422-.364A1.439,1.439,0,0,0,63,27.365a1.52,1.52,0,0,0-1.057-.385,1.568,1.568,0,0,0-1.092.392,1.641,1.641,0,0,0-.49,1.148ZM71.5,30.942V33H70.423a3.1,3.1,0,0,1-2.135-.679,2.878,2.878,0,0,1-.763-2.247V27.2h-1.05V25.188h1.05V23.27h2.394v1.918h1.568V27.2H69.919v2.912a.877.877,0,0,0,.189.644.9.9,0,0,0,.637.182Zm8.764-2.058a3.3,3.3,0,0,1-.07.644H74.777a1.811,1.811,0,0,0,.448,1.267,1.445,1.445,0,0,0,1.036.385,1.416,1.416,0,0,0,.882-.266,1.242,1.242,0,0,0,.462-.686h2.534a3.311,3.311,0,0,1-.672,1.477,3.582,3.582,0,0,1-1.316,1.022,4.494,4.494,0,0,1-3.815-.112,3.451,3.451,0,0,1-1.393-1.393,4.789,4.789,0,0,1-.007-4.263,3.406,3.406,0,0,1,1.393-1.386,4.6,4.6,0,0,1,4.088-.007A3.363,3.363,0,0,1,79.782,26.9,3.98,3.98,0,0,1,80.265,28.884Zm-2.422-.364a1.439,1.439,0,0,0-.413-1.155,1.52,1.52,0,0,0-1.057-.385,1.568,1.568,0,0,0-1.092.392,1.641,1.641,0,0,0-.49,1.148Zm17.6-5.348V33H93.047V26.854L90.919,33H88.847l-2.142-6.16V33H84.311V23.172h2.926l2.674,6.846,2.618-6.846Zm1.428-.182a1.169,1.169,0,0,1,.392-.9,1.682,1.682,0,0,1,2.072,0,1.169,1.169,0,0,1,.392.9,1.153,1.153,0,0,1-.392.889,1.682,1.682,0,0,1-2.072,0A1.153,1.153,0,0,1,96.869,22.99Zm2.618,2.2V33H97.093V25.188Zm4.494-.1a3.584,3.584,0,0,1,2.373.742,3.224,3.224,0,0,1,1.113,1.96h-2.24a1.241,1.241,0,0,0-.441-.749,1.339,1.339,0,0,0-.861-.273.941.941,0,0,0-.616.175.611.611,0,0,0-.21.5.583.583,0,0,0,.385.546,6.139,6.139,0,0,0,1.211.364,12.026,12.026,0,0,1,1.47.427,2.425,2.425,0,0,1,.994.707,1.954,1.954,0,0,1,.42,1.316,2.018,2.018,0,0,1-.364,1.19,2.4,2.4,0,0,1-1.05.812,4.1,4.1,0,0,1-1.624.294,4.182,4.182,0,0,1-2.534-.7,2.954,2.954,0,0,1-1.162-2h2.31a1.04,1.04,0,0,0,.427.77,1.608,1.608,0,0,0,.959.266.893.893,0,0,0,.616-.189.637.637,0,0,0,.21-.5.6.6,0,0,0-.385-.581,7.079,7.079,0,0,0-1.253-.371A10.019,10.019,0,0,1,102.3,29.4a2.358,2.358,0,0,1-.966-.679,1.892,1.892,0,0,1-.406-1.281,2.09,2.09,0,0,1,.8-1.7A3.477,3.477,0,0,1,103.981,25.09Zm7.77,0a3.584,3.584,0,0,1,2.373.742,3.224,3.224,0,0,1,1.113,1.96H113a1.241,1.241,0,0,0-.441-.749,1.339,1.339,0,0,0-.861-.273.941.941,0,0,0-.616.175.611.611,0,0,0-.21.5.583.583,0,0,0,.385.546,6.139,6.139,0,0,0,1.211.364,12.026,12.026,0,0,1,1.47.427,2.425,2.425,0,0,1,.994.707,1.954,1.954,0,0,1,.42,1.316,2.018,2.018,0,0,1-.364,1.19,2.4,2.4,0,0,1-1.05.812,4.1,4.1,0,0,1-1.624.294,4.182,4.182,0,0,1-2.534-.7,2.954,2.954,0,0,1-1.162-2h2.31a1.04,1.04,0,0,0,.427.77,1.608,1.608,0,0,0,.959.266.893.893,0,0,0,.616-.189.637.637,0,0,0,.21-.5.6.6,0,0,0-.385-.581,7.079,7.079,0,0,0-1.253-.371,10.019,10.019,0,0,1-1.428-.392,2.358,2.358,0,0,1-.966-.679,1.892,1.892,0,0,1-.406-1.281,2.09,2.09,0,0,1,.8-1.7A3.477,3.477,0,0,1,111.751,25.09Zm4.7-2.1a1.169,1.169,0,0,1,.392-.9,1.682,1.682,0,0,1,2.072,0,1.169,1.169,0,0,1,.392.9,1.153,1.153,0,0,1-.392.889,1.682,1.682,0,0,1-2.072,0A1.153,1.153,0,0,1,116.455,22.99Zm2.618,2.2V33h-2.394V25.188Zm5.306-.1a4.393,4.393,0,0,1,2.079.483,3.541,3.541,0,0,1,1.442,1.393,4.575,4.575,0,0,1,0,4.256,3.541,3.541,0,0,1-1.442,1.393,4.731,4.731,0,0,1-4.165,0,3.53,3.53,0,0,1-1.449-1.393,4.575,4.575,0,0,1,0-4.256,3.53,3.53,0,0,1,1.449-1.393A4.435,4.435,0,0,1,124.379,25.09Zm0,2.072a1.526,1.526,0,0,0-1.155.5,2.013,2.013,0,0,0-.469,1.435,1.987,1.987,0,0,0,.469,1.428,1.536,1.536,0,0,0,1.155.49,1.514,1.514,0,0,0,1.148-.49,2.006,2.006,0,0,0,.462-1.428,2.033,2.033,0,0,0-.462-1.435A1.5,1.5,0,0,0,124.379,27.162ZM134.627,25.1a2.7,2.7,0,0,1,2.135.9,3.594,3.594,0,0,1,.791,2.464V33h-2.394V28.744a1.722,1.722,0,0,0-.413-1.225,1.434,1.434,0,0,0-1.1-.441,1.5,1.5,0,0,0-1.155.462,1.869,1.869,0,0,0-.427,1.316V33h-2.394V25.188h2.394v1.428a2.577,2.577,0,0,1,1-1.106A2.936,2.936,0,0,1,134.627,25.1Z" transform="translate(1604 3979)" fill="#fff"/>
    <path id="Tracciato_623" data-name="Tracciato 623" d="M266.5,533H266V420h.5c1.481,0,2.986-.021,4.474-.064l.035.1.034.014L323,476.5l-51.965,56.462C269.508,532.987,267.983,533,266.5,533Zm18.06-.606h0L336,476.5,284,420H284l-.144-.156-.362-.389-.328-.352a152.9,152.9,0,0,0,77.06-31.114,154.746,154.746,0,0,0,36.74-40.68,153.5,153.5,0,0,0,12.461-24.8c1.729-4.394,3.273-8.938,4.591-13.505L473,250.8l56.943,56.183c-.674,4.425-1.467,8.874-2.357,13.225a265.051,265.051,0,0,1-40.1,95.294,267.273,267.273,0,0,1-117.252,96.554,265.084,265.084,0,0,1-50.025,15.529A267.891,267.891,0,0,1,284.561,532.394ZM56.5,324.828h0L0,269v-2.5a268.47,268.47,0,0,1,5.414-53.709,265.057,265.057,0,0,1,40.1-95.293A267.276,267.276,0,0,1,162.768,20.943c4.9-2.072,9.937-4.025,14.975-5.8L145.459,88.983l71.26,32.3A153.442,153.442,0,0,0,113,266.5c0,.166,0,.335,0,.5v2L56.5,324.828Zm475.112-31L473,236l-54.807,54.074A154.843,154.843,0,0,0,420,266.5c0-84.64-68.86-153.5-153.5-153.5a153.813,153.813,0,0,0-34.115,3.821l-73.111-33.14,31.86-72.872c7.128-2.1,14.414-3.913,21.657-5.395a269.093,269.093,0,0,1,107.418,0,265.049,265.049,0,0,1,95.294,40.1,267.279,267.279,0,0,1,96.554,117.253,265.065,265.065,0,0,1,15.529,50.024,269.337,269.337,0,0,1,4.027,81.038v0h0Z" transform="translate(1152.999 3521)" fill="#ac4b45"/>
    <path id="Tracciato_636" data-name="Tracciato 636" d="M26.2,5.1V15H23.808V5.1Zm6.608,2a2.7,2.7,0,0,1,2.135.9,3.594,3.594,0,0,1,.791,2.464V15H33.342V10.744a1.722,1.722,0,0,0-.413-1.225,1.434,1.434,0,0,0-1.1-.441,1.5,1.5,0,0,0-1.155.462,1.869,1.869,0,0,0-.427,1.316V15H27.854V7.188h2.394V8.616a2.577,2.577,0,0,1,1-1.106A2.936,2.936,0,0,1,32.81,7.1Zm8.932,5.838V15H40.664a3.1,3.1,0,0,1-2.135-.679,2.878,2.878,0,0,1-.763-2.247V9.2h-1.05V7.188h1.05V5.27H40.16V7.188h1.568V9.2H40.16v2.912a.877.877,0,0,0,.189.644.9.9,0,0,0,.637.182Zm8.764-2.058a3.3,3.3,0,0,1-.07.644H45.018a1.811,1.811,0,0,0,.448,1.267,1.445,1.445,0,0,0,1.036.385,1.416,1.416,0,0,0,.882-.266,1.242,1.242,0,0,0,.462-.686H50.38a3.311,3.311,0,0,1-.672,1.477,3.582,3.582,0,0,1-1.316,1.022,4.494,4.494,0,0,1-3.815-.112,3.451,3.451,0,0,1-1.393-1.393,4.322,4.322,0,0,1-.5-2.128,4.361,4.361,0,0,1,.5-2.135A3.406,3.406,0,0,1,44.57,7.573a4.6,4.6,0,0,1,4.088-.007A3.363,3.363,0,0,1,50.023,8.9,3.98,3.98,0,0,1,50.506,10.884Zm-2.422-.364a1.439,1.439,0,0,0-.413-1.155,1.52,1.52,0,0,0-1.057-.385,1.568,1.568,0,0,0-1.092.392,1.641,1.641,0,0,0-.49,1.148Zm6.062-1.862A3.4,3.4,0,0,1,55.3,7.524a2.948,2.948,0,0,1,1.533-.42V9.666h-.686a2.366,2.366,0,0,0-1.477.406,1.631,1.631,0,0,0-.525,1.372V15H51.752V7.188h2.394ZM62.8,7.1a2.7,2.7,0,0,1,2.135.9,3.594,3.594,0,0,1,.791,2.464V15H63.33V10.744a1.722,1.722,0,0,0-.413-1.225,1.434,1.434,0,0,0-1.1-.441,1.5,1.5,0,0,0-1.155.462,1.869,1.869,0,0,0-.427,1.316V15H57.842V7.188h2.394V8.616a2.577,2.577,0,0,1,1-1.106A2.936,2.936,0,0,1,62.8,7.1Zm7.476-.014a2.828,2.828,0,0,1,1.54.406A2.441,2.441,0,0,1,72.766,8.6V7.188h2.38V15h-2.38V13.586a2.441,2.441,0,0,1-.952,1.106,2.828,2.828,0,0,1-1.54.406,3.164,3.164,0,0,1-1.729-.483,3.3,3.3,0,0,1-1.2-1.393,4.828,4.828,0,0,1-.441-2.128,4.817,4.817,0,0,1,.441-2.135,3.312,3.312,0,0,1,1.2-1.386A3.164,3.164,0,0,1,70.274,7.09Zm.77,2.1a1.613,1.613,0,0,0-1.239.5,1.976,1.976,0,0,0-.469,1.4,1.976,1.976,0,0,0,.469,1.4,1.758,1.758,0,0,0,2.478-.014,1.951,1.951,0,0,0,.483-1.386A1.946,1.946,0,0,0,72.283,9.7,1.629,1.629,0,0,0,71.044,9.19Zm8.148-4.55V15H76.8V4.64ZM35.12,33l-2.142-3.738h-.546V33H30.038V23.1h4.088a4.413,4.413,0,0,1,1.988.406,2.8,2.8,0,0,1,1.218,1.113,3.188,3.188,0,0,1,.406,1.617,2.874,2.874,0,0,1-.595,1.834,3.041,3.041,0,0,1-1.729,1.036L37.766,33Zm-2.688-5.376h1.484a1.5,1.5,0,0,0,1.05-.315,1.216,1.216,0,0,0,.336-.931,1.234,1.234,0,0,0-.343-.924,1.437,1.437,0,0,0-1.043-.336H32.432Zm13.93,1.26a3.3,3.3,0,0,1-.07.644H40.874a1.811,1.811,0,0,0,.448,1.267,1.445,1.445,0,0,0,1.036.385,1.416,1.416,0,0,0,.882-.266,1.242,1.242,0,0,0,.462-.686h2.534a3.311,3.311,0,0,1-.672,1.477,3.582,3.582,0,0,1-1.316,1.022,4.494,4.494,0,0,1-3.815-.112,3.451,3.451,0,0,1-1.393-1.393,4.789,4.789,0,0,1-.007-4.263,3.406,3.406,0,0,1,1.393-1.386,4.6,4.6,0,0,1,4.088-.007A3.363,3.363,0,0,1,45.879,26.9,3.98,3.98,0,0,1,46.362,28.884ZM43.94,28.52a1.439,1.439,0,0,0-.413-1.155,1.52,1.52,0,0,0-1.057-.385,1.568,1.568,0,0,0-1.092.392,1.641,1.641,0,0,0-.49,1.148Zm7.2-3.43a3.88,3.88,0,0,1,2.534.833,3.694,3.694,0,0,1,1.288,2.289H52.424a1.337,1.337,0,0,0-.462-.784,1.367,1.367,0,0,0-.882-.28,1.279,1.279,0,0,0-1.036.5,2.243,2.243,0,0,0-.406,1.449,2.243,2.243,0,0,0,.406,1.449,1.279,1.279,0,0,0,1.036.5,1.367,1.367,0,0,0,.882-.28,1.337,1.337,0,0,0,.462-.784h2.534a3.694,3.694,0,0,1-1.288,2.289,3.88,3.88,0,0,1-2.534.833,4.2,4.2,0,0,1-2.037-.483,3.451,3.451,0,0,1-1.393-1.393,4.789,4.789,0,0,1-.007-4.263,3.406,3.406,0,0,1,1.393-1.386A4.239,4.239,0,0,1,51.136,25.09Zm8.722,0a4.393,4.393,0,0,1,2.079.483,3.541,3.541,0,0,1,1.442,1.393,4.575,4.575,0,0,1,0,4.256,3.541,3.541,0,0,1-1.442,1.393,4.731,4.731,0,0,1-4.165,0,3.53,3.53,0,0,1-1.449-1.393,4.575,4.575,0,0,1,0-4.256,3.53,3.53,0,0,1,1.449-1.393A4.435,4.435,0,0,1,59.858,25.09Zm0,2.072a1.525,1.525,0,0,0-1.155.5,2.013,2.013,0,0,0-.469,1.435,1.987,1.987,0,0,0,.469,1.428,1.536,1.536,0,0,0,1.155.49,1.514,1.514,0,0,0,1.148-.49,2.006,2.006,0,0,0,.462-1.428,2.033,2.033,0,0,0-.462-1.435A1.5,1.5,0,0,0,59.858,27.162ZM70.106,25.1a2.7,2.7,0,0,1,2.135.9,3.594,3.594,0,0,1,.791,2.464V33H70.638V28.744a1.722,1.722,0,0,0-.413-1.225,1.434,1.434,0,0,0-1.1-.441,1.5,1.5,0,0,0-1.155.462,1.869,1.869,0,0,0-.427,1.316V33H65.15V25.188h2.394v1.428a2.577,2.577,0,0,1,1-1.106A2.936,2.936,0,0,1,70.106,25.1Z" transform="translate(1529 3903)" fill="#fff"/>
    <path id="Tracciato_635" data-name="Tracciato 635" d="M36.1,13.166h3.192V15H33.7V5.1H36.1ZM43.363,7.09A2.828,2.828,0,0,1,44.9,7.5,2.441,2.441,0,0,1,45.855,8.6V7.188h2.38V15h-2.38V13.586a2.441,2.441,0,0,1-.952,1.106,2.828,2.828,0,0,1-1.54.406,3.164,3.164,0,0,1-1.729-.483,3.3,3.3,0,0,1-1.2-1.393,4.828,4.828,0,0,1-.441-2.128,4.817,4.817,0,0,1,.441-2.135,3.312,3.312,0,0,1,1.2-1.386A3.164,3.164,0,0,1,43.363,7.09Zm.77,2.1a1.613,1.613,0,0,0-1.239.5,1.976,1.976,0,0,0-.469,1.4,1.976,1.976,0,0,0,.469,1.4,1.758,1.758,0,0,0,2.478-.014,1.951,1.951,0,0,0,.483-1.386A1.946,1.946,0,0,0,45.372,9.7,1.629,1.629,0,0,0,44.133,9.19Zm10.178,3.752V15H53.233a3.1,3.1,0,0,1-2.135-.679,2.878,2.878,0,0,1-.763-2.247V9.2h-1.05V7.188h1.05V5.27h2.394V7.188H54.3V9.2H52.729v2.912a.877.877,0,0,0,.189.644.9.9,0,0,0,.637.182Zm8.764-2.058a3.3,3.3,0,0,1-.07.644H57.587a1.811,1.811,0,0,0,.448,1.267,1.445,1.445,0,0,0,1.036.385,1.416,1.416,0,0,0,.882-.266,1.242,1.242,0,0,0,.462-.686h2.534a3.311,3.311,0,0,1-.672,1.477,3.582,3.582,0,0,1-1.316,1.022,4.494,4.494,0,0,1-3.815-.112,3.451,3.451,0,0,1-1.393-1.393,4.322,4.322,0,0,1-.5-2.128,4.361,4.361,0,0,1,.5-2.135,3.406,3.406,0,0,1,1.393-1.386,4.6,4.6,0,0,1,4.088-.007A3.363,3.363,0,0,1,62.592,8.9,3.98,3.98,0,0,1,63.075,10.884Zm-2.422-.364a1.439,1.439,0,0,0-.413-1.155,1.52,1.52,0,0,0-1.057-.385,1.568,1.568,0,0,0-1.092.392,1.641,1.641,0,0,0-.49,1.148Zm6.062-1.862A3.4,3.4,0,0,1,67.87,7.524,2.949,2.949,0,0,1,69.4,7.1V9.666h-.686a2.366,2.366,0,0,0-1.477.406,1.631,1.631,0,0,0-.525,1.372V15H64.321V7.188h2.394ZM73.379,7.09a2.828,2.828,0,0,1,1.54.406A2.441,2.441,0,0,1,75.871,8.6V7.188h2.38V15h-2.38V13.586a2.441,2.441,0,0,1-.952,1.106,2.828,2.828,0,0,1-1.54.406,3.164,3.164,0,0,1-1.729-.483,3.3,3.3,0,0,1-1.2-1.393A4.828,4.828,0,0,1,70,11.094a4.817,4.817,0,0,1,.441-2.135,3.312,3.312,0,0,1,1.2-1.386A3.164,3.164,0,0,1,73.379,7.09Zm.77,2.1a1.613,1.613,0,0,0-1.239.5,1.976,1.976,0,0,0-.469,1.4,1.976,1.976,0,0,0,.469,1.4,1.758,1.758,0,0,0,2.478-.014,1.951,1.951,0,0,0,.483-1.386A1.946,1.946,0,0,0,75.388,9.7,1.629,1.629,0,0,0,74.149,9.19ZM82.3,4.64V15H79.9V4.64ZM30.98,23.172V33H28.586V26.854L26.458,33H24.386l-2.142-6.16V33H19.85V23.172h2.926l2.674,6.846,2.618-6.846Zm5.306,1.918a4.393,4.393,0,0,1,2.079.483,3.541,3.541,0,0,1,1.442,1.393,4.575,4.575,0,0,1,0,4.256,3.541,3.541,0,0,1-1.442,1.393,4.731,4.731,0,0,1-4.165,0,3.53,3.53,0,0,1-1.449-1.393,4.575,4.575,0,0,1,0-4.256A3.53,3.53,0,0,1,34.2,25.573,4.435,4.435,0,0,1,36.286,25.09Zm0,2.072a1.526,1.526,0,0,0-1.155.5,2.013,2.013,0,0,0-.469,1.435,1.987,1.987,0,0,0,.469,1.428,1.536,1.536,0,0,0,1.155.49,1.514,1.514,0,0,0,1.148-.49,2.006,2.006,0,0,0,.462-1.428,2.033,2.033,0,0,0-.462-1.435A1.5,1.5,0,0,0,36.286,27.162Zm8.9,3.5,1.694-5.474h2.548L46.66,33H43.692L40.92,25.188h2.548Zm12.656-1.778a3.3,3.3,0,0,1-.07.644H52.358a1.811,1.811,0,0,0,.448,1.267,1.445,1.445,0,0,0,1.036.385,1.416,1.416,0,0,0,.882-.266,1.242,1.242,0,0,0,.462-.686H57.72a3.311,3.311,0,0,1-.672,1.477,3.582,3.582,0,0,1-1.316,1.022,4.494,4.494,0,0,1-3.815-.112,3.451,3.451,0,0,1-1.393-1.393,4.789,4.789,0,0,1-.007-4.263,3.406,3.406,0,0,1,1.393-1.386A4.6,4.6,0,0,1,56,25.566,3.363,3.363,0,0,1,57.363,26.9,3.98,3.98,0,0,1,57.846,28.884Zm-2.422-.364a1.439,1.439,0,0,0-.413-1.155,1.52,1.52,0,0,0-1.057-.385,1.568,1.568,0,0,0-1.092.392,1.641,1.641,0,0,0-.49,1.148ZM69.214,25.1a2.944,2.944,0,0,1,2.268.889,3.491,3.491,0,0,1,.826,2.471V33h-2.38V28.744a1.594,1.594,0,0,0-.4-1.155,1.438,1.438,0,0,0-1.085-.413,1.469,1.469,0,0,0-1.127.441,1.743,1.743,0,0,0-.413,1.239V33H64.51V28.744a1.611,1.611,0,0,0-.392-1.155,1.415,1.415,0,0,0-1.078-.413,1.5,1.5,0,0,0-1.134.434,1.72,1.72,0,0,0-.42,1.246V33H59.092V25.188h2.394v1.33a2.331,2.331,0,0,1,.945-1.036,2.867,2.867,0,0,1,1.491-.378,3.007,3.007,0,0,1,1.582.413A2.594,2.594,0,0,1,66.54,26.7a3.129,3.129,0,0,1,1.113-1.162A2.926,2.926,0,0,1,69.214,25.1Zm12.11,3.78a3.3,3.3,0,0,1-.07.644H75.836a1.811,1.811,0,0,0,.448,1.267,1.445,1.445,0,0,0,1.036.385,1.416,1.416,0,0,0,.882-.266,1.242,1.242,0,0,0,.462-.686H81.2a3.311,3.311,0,0,1-.672,1.477,3.582,3.582,0,0,1-1.316,1.022,4.494,4.494,0,0,1-3.815-.112A3.451,3.451,0,0,1,74,31.222,4.789,4.789,0,0,1,74,26.959a3.406,3.406,0,0,1,1.393-1.386,4.6,4.6,0,0,1,4.088-.007A3.363,3.363,0,0,1,80.841,26.9,3.98,3.98,0,0,1,81.324,28.884ZM78.9,28.52a1.439,1.439,0,0,0-.413-1.155,1.52,1.52,0,0,0-1.057-.385,1.568,1.568,0,0,0-1.092.392,1.641,1.641,0,0,0-.49,1.148ZM87.526,25.1a2.7,2.7,0,0,1,2.135.9,3.594,3.594,0,0,1,.791,2.464V33H88.058V28.744a1.722,1.722,0,0,0-.413-1.225,1.434,1.434,0,0,0-1.1-.441,1.5,1.5,0,0,0-1.155.462,1.869,1.869,0,0,0-.427,1.316V33H82.57V25.188h2.394v1.428a2.577,2.577,0,0,1,1-1.106A2.936,2.936,0,0,1,87.526,25.1Zm8.932,5.838V33H95.38a3.1,3.1,0,0,1-2.135-.679,2.878,2.878,0,0,1-.763-2.247V27.2h-1.05V25.188h1.05V23.27h2.394v1.918h1.568V27.2H94.876v2.912a.877.877,0,0,0,.189.644.9.9,0,0,0,.637.182Z" transform="translate(1476 3587)" fill="#fff"/>
    <path id="Tracciato_624" data-name="Tracciato 624" d="M32.223,10.03a5.25,5.25,0,0,1-.623,2.583,4.364,4.364,0,0,1-1.792,1.757,5.715,5.715,0,0,1-2.751.63H23.319V5.1h3.738a5.811,5.811,0,0,1,2.758.616A4.3,4.3,0,0,1,31.6,7.454,5.21,5.21,0,0,1,32.223,10.03Zm-5.376,2.828a3.025,3.025,0,0,0,2.177-.742A2.747,2.747,0,0,0,29.8,10.03a2.747,2.747,0,0,0-.777-2.086A3.025,3.025,0,0,0,26.847,7.2H25.713v5.656Zm9.7-5.768a2.828,2.828,0,0,1,1.54.406A2.441,2.441,0,0,1,39.041,8.6V7.188h2.38V15h-2.38V13.586a2.441,2.441,0,0,1-.952,1.106,2.828,2.828,0,0,1-1.54.406,3.164,3.164,0,0,1-1.729-.483,3.3,3.3,0,0,1-1.2-1.393,4.828,4.828,0,0,1-.441-2.128,4.817,4.817,0,0,1,.441-2.135,3.312,3.312,0,0,1,1.2-1.386A3.164,3.164,0,0,1,36.549,7.09Zm.77,2.1a1.613,1.613,0,0,0-1.239.5,1.976,1.976,0,0,0-.469,1.4,1.976,1.976,0,0,0,.469,1.4,1.758,1.758,0,0,0,2.478-.014,1.951,1.951,0,0,0,.483-1.386A1.946,1.946,0,0,0,38.558,9.7,1.629,1.629,0,0,0,37.319,9.19ZM47.5,12.942V15H46.419a3.1,3.1,0,0,1-2.135-.679,2.878,2.878,0,0,1-.763-2.247V9.2h-1.05V7.188h1.05V5.27h2.394V7.188h1.568V9.2H45.915v2.912a.877.877,0,0,0,.189.644.9.9,0,0,0,.637.182ZM51.809,7.09a2.828,2.828,0,0,1,1.54.406A2.441,2.441,0,0,1,54.3,8.6V7.188h2.38V15H54.3V13.586a2.441,2.441,0,0,1-.952,1.106,2.828,2.828,0,0,1-1.54.406,3.164,3.164,0,0,1-1.729-.483,3.3,3.3,0,0,1-1.2-1.393,4.828,4.828,0,0,1-.441-2.128,4.817,4.817,0,0,1,.441-2.135,3.312,3.312,0,0,1,1.2-1.386A3.164,3.164,0,0,1,51.809,7.09Zm.77,2.1a1.613,1.613,0,0,0-1.239.5,1.976,1.976,0,0,0-.469,1.4,1.976,1.976,0,0,0,.469,1.4,1.758,1.758,0,0,0,2.478-.014,1.951,1.951,0,0,0,.483-1.386A1.946,1.946,0,0,0,53.818,9.7,1.629,1.629,0,0,0,52.579,9.19Zm-36.463,22h-3.71L11.79,33H9.27L12.9,23.172h2.758L19.28,33H16.732Zm-.616-1.82-1.232-3.64-1.246,3.64Zm9.66-4.27a2.7,2.7,0,0,1,2.135.9,3.594,3.594,0,0,1,.791,2.464V33H25.692V28.744a1.722,1.722,0,0,0-.413-1.225,1.434,1.434,0,0,0-1.1-.441,1.5,1.5,0,0,0-1.155.462,1.869,1.869,0,0,0-.427,1.316V33H20.2V25.188H22.6v1.428a2.577,2.577,0,0,1,1-1.106A2.936,2.936,0,0,1,25.16,25.1Zm7.476-.014a2.828,2.828,0,0,1,1.54.406,2.441,2.441,0,0,1,.952,1.106V25.188h2.38V33h-2.38V31.586a2.441,2.441,0,0,1-.952,1.106,2.828,2.828,0,0,1-1.54.406,3.164,3.164,0,0,1-1.729-.483,3.3,3.3,0,0,1-1.2-1.393,5.372,5.372,0,0,1,0-4.263,3.312,3.312,0,0,1,1.2-1.386A3.164,3.164,0,0,1,32.636,25.09Zm.77,2.1a1.613,1.613,0,0,0-1.239.5,2.324,2.324,0,0,0,0,2.8,1.758,1.758,0,0,0,2.478-.014,2.24,2.24,0,0,0,0-2.779A1.629,1.629,0,0,0,33.406,27.19Zm8.148-4.55V33H39.16V22.64Zm3.458,2.548,1.876,4.788,1.75-4.788h2.646L46.412,36.724H43.78l1.834-4.018-3.276-7.518Zm9.912-.1a3.584,3.584,0,0,1,2.373.742,3.224,3.224,0,0,1,1.113,1.96H56.17a1.241,1.241,0,0,0-.441-.749,1.339,1.339,0,0,0-.861-.273.941.941,0,0,0-.616.175.611.611,0,0,0-.21.5.583.583,0,0,0,.385.546,6.139,6.139,0,0,0,1.211.364,12.026,12.026,0,0,1,1.47.427,2.425,2.425,0,0,1,.994.707,1.954,1.954,0,0,1,.42,1.316,2.018,2.018,0,0,1-.364,1.19,2.4,2.4,0,0,1-1.05.812,4.1,4.1,0,0,1-1.624.294,4.182,4.182,0,0,1-2.534-.7,2.954,2.954,0,0,1-1.162-2H54.1a1.04,1.04,0,0,0,.427.77,1.608,1.608,0,0,0,.959.266.893.893,0,0,0,.616-.189.637.637,0,0,0,.21-.5.6.6,0,0,0-.385-.581,7.079,7.079,0,0,0-1.253-.371,10.02,10.02,0,0,1-1.428-.392,2.358,2.358,0,0,1-.966-.679,1.892,1.892,0,0,1-.406-1.281,2.09,2.09,0,0,1,.8-1.7A3.477,3.477,0,0,1,54.924,25.09Zm4.7-2.1a1.169,1.169,0,0,1,.392-.9,1.682,1.682,0,0,1,2.072,0,1.169,1.169,0,0,1,.392.9,1.153,1.153,0,0,1-.392.889,1.682,1.682,0,0,1-2.072,0A1.153,1.153,0,0,1,59.628,22.99Zm2.618,2.2V33H59.852V25.188Zm4.494-.1a3.584,3.584,0,0,1,2.373.742,3.224,3.224,0,0,1,1.113,1.96h-2.24a1.241,1.241,0,0,0-.441-.749,1.339,1.339,0,0,0-.861-.273.941.941,0,0,0-.616.175.611.611,0,0,0-.21.5.583.583,0,0,0,.385.546,6.139,6.139,0,0,0,1.211.364,12.026,12.026,0,0,1,1.47.427,2.425,2.425,0,0,1,.994.707,1.954,1.954,0,0,1,.42,1.316,2.018,2.018,0,0,1-.364,1.19,2.4,2.4,0,0,1-1.05.812A4.1,4.1,0,0,1,67.3,33.1a4.182,4.182,0,0,1-2.534-.7,2.954,2.954,0,0,1-1.162-2h2.31a1.04,1.04,0,0,0,.427.77,1.608,1.608,0,0,0,.959.266.893.893,0,0,0,.616-.189.637.637,0,0,0,.21-.5.6.6,0,0,0-.385-.581,7.079,7.079,0,0,0-1.253-.371A10.019,10.019,0,0,1,65.06,29.4a2.358,2.358,0,0,1-.966-.679,1.892,1.892,0,0,1-.406-1.281,2.09,2.09,0,0,1,.8-1.7A3.477,3.477,0,0,1,66.74,25.09Z" transform="translate(1197 3657)" fill="#fff"/>
    <path id="Tracciato_626" data-name="Tracciato 626" d="M283,113H113l56-56.5L113,0H283l56,56.5L283,113Z" transform="translate(769 3941)" fill="#c15b57"/>
    <path id="Tracciato_627" data-name="Tracciato 627" d="M283,113H113l56-56.5L113,0H283l56,56.5L283,113Z" transform="translate(953 3941)" fill="#ac4b45"/>
    <path id="Tracciato_628" data-name="Tracciato 628" d="M283,113H113l56-56.5L113,0H283l56,56.5L283,113Z" transform="translate(1137 3941)" fill="#c15b57"/>
    <path id="Tracciato_629" data-name="Tracciato 629" d="M40.766,5.1V15H38.372V5.1Zm6.608,2a2.7,2.7,0,0,1,2.135.9,3.594,3.594,0,0,1,.791,2.464V15H47.906V10.744a1.722,1.722,0,0,0-.413-1.225,1.434,1.434,0,0,0-1.1-.441,1.5,1.5,0,0,0-1.155.462,1.869,1.869,0,0,0-.427,1.316V15H42.418V7.188h2.394V8.616a2.577,2.577,0,0,1,1-1.106A2.936,2.936,0,0,1,47.374,7.1ZM51.658,4.99a1.169,1.169,0,0,1,.392-.9,1.682,1.682,0,0,1,2.072,0,1.169,1.169,0,0,1,.392.9,1.153,1.153,0,0,1-.392.889,1.682,1.682,0,0,1-2.072,0A1.153,1.153,0,0,1,51.658,4.99Zm2.618,2.2V15H51.882V7.188Zm6.076,5.754V15H59.274a3.1,3.1,0,0,1-2.135-.679,2.878,2.878,0,0,1-.763-2.247V9.2h-1.05V7.188h1.05V5.27H58.77V7.188h1.568V9.2H58.77v2.912a.877.877,0,0,0,.189.644.9.9,0,0,0,.637.182Zm1.12-7.952a1.169,1.169,0,0,1,.392-.9,1.682,1.682,0,0,1,2.072,0,1.169,1.169,0,0,1,.392.9,1.153,1.153,0,0,1-.392.889,1.682,1.682,0,0,1-2.072,0A1.153,1.153,0,0,1,61.472,4.99Zm2.618,2.2V15H61.7V7.188Zm4.62-.1a2.828,2.828,0,0,1,1.54.406A2.441,2.441,0,0,1,71.2,8.6V7.188h2.38V15H71.2V13.586a2.441,2.441,0,0,1-.952,1.106,2.828,2.828,0,0,1-1.54.406,3.164,3.164,0,0,1-1.729-.483,3.3,3.3,0,0,1-1.2-1.393,4.828,4.828,0,0,1-.441-2.128,4.817,4.817,0,0,1,.441-2.135,3.312,3.312,0,0,1,1.2-1.386A3.164,3.164,0,0,1,68.71,7.09Zm.77,2.1a1.613,1.613,0,0,0-1.239.5,1.976,1.976,0,0,0-.469,1.4,1.976,1.976,0,0,0,.469,1.4,1.758,1.758,0,0,0,2.478-.014,1.951,1.951,0,0,0,.483-1.386A1.946,1.946,0,0,0,70.719,9.7,1.629,1.629,0,0,0,69.48,9.19Zm8.148-4.55V15H75.234V4.64ZM16.259,23A4.842,4.842,0,0,1,19.388,24a4.548,4.548,0,0,1,1.6,2.688H18.457a2.325,2.325,0,0,0-.861-1.078,2.407,2.407,0,0,0-1.379-.392,2.1,2.1,0,0,0-1.694.77,3.1,3.1,0,0,0-.644,2.058,3.076,3.076,0,0,0,.644,2.051,2.109,2.109,0,0,0,1.694.763,2.407,2.407,0,0,0,1.379-.392,2.335,2.335,0,0,0,.861-1.064h2.534a4.573,4.573,0,0,1-1.6,2.681,4.819,4.819,0,0,1-3.129,1,4.937,4.937,0,0,1-2.534-.637,4.324,4.324,0,0,1-1.687-1.785,6.057,6.057,0,0,1,0-5.236,4.324,4.324,0,0,1,1.687-1.785A4.937,4.937,0,0,1,16.259,23Zm9.73,2.086a4.393,4.393,0,0,1,2.079.483,3.541,3.541,0,0,1,1.442,1.393,4.575,4.575,0,0,1,0,4.256,3.541,3.541,0,0,1-1.442,1.393,4.731,4.731,0,0,1-4.165,0,3.53,3.53,0,0,1-1.449-1.393,4.575,4.575,0,0,1,0-4.256A3.53,3.53,0,0,1,23.9,25.573,4.435,4.435,0,0,1,25.989,25.09Zm0,2.072a1.525,1.525,0,0,0-1.155.5,2.013,2.013,0,0,0-.469,1.435,1.987,1.987,0,0,0,.469,1.428,1.536,1.536,0,0,0,1.155.49,1.514,1.514,0,0,0,1.148-.49,2.006,2.006,0,0,0,.462-1.428,2.033,2.033,0,0,0-.462-1.435A1.5,1.5,0,0,0,25.989,27.162ZM41.4,25.1a2.944,2.944,0,0,1,2.268.889,3.491,3.491,0,0,1,.826,2.471V33h-2.38V28.744a1.594,1.594,0,0,0-.4-1.155,1.438,1.438,0,0,0-1.085-.413,1.469,1.469,0,0,0-1.127.441,1.743,1.743,0,0,0-.413,1.239V33H36.7V28.744a1.611,1.611,0,0,0-.392-1.155,1.415,1.415,0,0,0-1.078-.413,1.5,1.5,0,0,0-1.134.434,1.72,1.72,0,0,0-.42,1.246V33H31.281V25.188h2.394v1.33a2.331,2.331,0,0,1,.945-1.036,2.867,2.867,0,0,1,1.491-.378,3.007,3.007,0,0,1,1.582.413A2.594,2.594,0,0,1,38.729,26.7a3.129,3.129,0,0,1,1.113-1.162A2.926,2.926,0,0,1,41.4,25.1Zm9.562-.014a3.164,3.164,0,0,1,1.729.483,3.312,3.312,0,0,1,1.2,1.386,5.372,5.372,0,0,1,0,4.263,3.3,3.3,0,0,1-1.2,1.393,3.164,3.164,0,0,1-1.729.483,2.828,2.828,0,0,1-1.54-.406,2.358,2.358,0,0,1-.938-1.106v5.138H46.093V25.188h2.394V26.6a2.358,2.358,0,0,1,.938-1.106A2.828,2.828,0,0,1,50.965,25.09Zm-.77,2.1a1.629,1.629,0,0,0-1.239.511,2.24,2.24,0,0,0,0,2.779,1.758,1.758,0,0,0,2.478.014,2.324,2.324,0,0,0,0-2.8A1.613,1.613,0,0,0,50.195,27.19Zm7.784-.532a3.4,3.4,0,0,1,1.155-1.134,2.948,2.948,0,0,1,1.533-.42v2.562h-.686a2.366,2.366,0,0,0-1.477.406,1.631,1.631,0,0,0-.525,1.372V33H55.585V25.188h2.394Zm7.35-1.568a4.393,4.393,0,0,1,2.079.483,3.541,3.541,0,0,1,1.442,1.393,4.575,4.575,0,0,1,0,4.256,3.541,3.541,0,0,1-1.442,1.393,4.731,4.731,0,0,1-4.165,0,3.53,3.53,0,0,1-1.449-1.393,4.575,4.575,0,0,1,0-4.256,3.53,3.53,0,0,1,1.449-1.393A4.435,4.435,0,0,1,65.329,25.09Zm0,2.072a1.526,1.526,0,0,0-1.155.5,2.013,2.013,0,0,0-.469,1.435,1.987,1.987,0,0,0,.469,1.428,1.536,1.536,0,0,0,1.155.49,1.514,1.514,0,0,0,1.148-.49,2.006,2.006,0,0,0,.462-1.428,2.033,2.033,0,0,0-.462-1.435A1.5,1.5,0,0,0,65.329,27.162ZM80.743,25.1a2.944,2.944,0,0,1,2.268.889,3.491,3.491,0,0,1,.826,2.471V33h-2.38V28.744a1.594,1.594,0,0,0-.4-1.155,1.438,1.438,0,0,0-1.085-.413,1.469,1.469,0,0,0-1.127.441,1.743,1.743,0,0,0-.413,1.239V33H76.039V28.744a1.611,1.611,0,0,0-.392-1.155,1.415,1.415,0,0,0-1.078-.413,1.5,1.5,0,0,0-1.134.434,1.72,1.72,0,0,0-.42,1.246V33H70.621V25.188h2.394v1.33a2.331,2.331,0,0,1,.945-1.036,2.867,2.867,0,0,1,1.491-.378,3.007,3.007,0,0,1,1.582.413A2.594,2.594,0,0,1,78.069,26.7a3.129,3.129,0,0,1,1.113-1.162A2.926,2.926,0,0,1,80.743,25.1Zm4.466-2.114a1.169,1.169,0,0,1,.392-.9,1.682,1.682,0,0,1,2.072,0,1.169,1.169,0,0,1,.392.9,1.153,1.153,0,0,1-.392.889,1.682,1.682,0,0,1-2.072,0A1.153,1.153,0,0,1,85.209,22.99Zm2.618,2.2V33H85.433V25.188Zm4.494-.1a3.584,3.584,0,0,1,2.373.742,3.224,3.224,0,0,1,1.113,1.96h-2.24a1.241,1.241,0,0,0-.441-.749,1.339,1.339,0,0,0-.861-.273.941.941,0,0,0-.616.175.611.611,0,0,0-.21.5.583.583,0,0,0,.385.546,6.139,6.139,0,0,0,1.211.364,12.026,12.026,0,0,1,1.47.427,2.425,2.425,0,0,1,.994.707,1.954,1.954,0,0,1,.42,1.316,2.018,2.018,0,0,1-.364,1.19,2.4,2.4,0,0,1-1.05.812,4.1,4.1,0,0,1-1.624.294,4.182,4.182,0,0,1-2.534-.7,2.954,2.954,0,0,1-1.162-2H91.5a1.04,1.04,0,0,0,.427.77,1.608,1.608,0,0,0,.959.266.893.893,0,0,0,.616-.189.637.637,0,0,0,.21-.5.6.6,0,0,0-.385-.581,7.079,7.079,0,0,0-1.253-.371,10.019,10.019,0,0,1-1.428-.392,2.358,2.358,0,0,1-.966-.679,1.892,1.892,0,0,1-.406-1.281,2.09,2.09,0,0,1,.8-1.7A3.477,3.477,0,0,1,92.321,25.09Zm12.348,3.794a3.3,3.3,0,0,1-.07.644H99.181a1.811,1.811,0,0,0,.448,1.267,1.445,1.445,0,0,0,1.036.385,1.416,1.416,0,0,0,.882-.266,1.242,1.242,0,0,0,.462-.686h2.534a3.311,3.311,0,0,1-.672,1.477,3.582,3.582,0,0,1-1.316,1.022,4.494,4.494,0,0,1-3.815-.112,3.451,3.451,0,0,1-1.393-1.393,4.789,4.789,0,0,1-.007-4.263,3.406,3.406,0,0,1,1.393-1.386,4.6,4.6,0,0,1,4.088-.007,3.363,3.363,0,0,1,1.365,1.337A3.98,3.98,0,0,1,104.669,28.884Zm-2.422-.364a1.439,1.439,0,0,0-.413-1.155,1.52,1.52,0,0,0-1.057-.385,1.568,1.568,0,0,0-1.092.392,1.641,1.641,0,0,0-.49,1.148Z" transform="translate(953 3979)" fill="#fff"/>
    <path id="Tracciato_630" data-name="Tracciato 630" d="M39.537,7.006V9.078h3.346v1.806H39.537v2.2H43.3V15h-6.16V5.1H43.3v1.9ZM47.5,7.09a3.584,3.584,0,0,1,2.373.742,3.224,3.224,0,0,1,1.113,1.96h-2.24a1.241,1.241,0,0,0-.441-.749,1.339,1.339,0,0,0-.861-.273.941.941,0,0,0-.616.175.611.611,0,0,0-.21.5.583.583,0,0,0,.385.546,6.139,6.139,0,0,0,1.211.364,12.026,12.026,0,0,1,1.47.427,2.425,2.425,0,0,1,.994.707A1.954,1.954,0,0,1,51.1,12.8a2.018,2.018,0,0,1-.364,1.19,2.4,2.4,0,0,1-1.05.812,4.1,4.1,0,0,1-1.624.294,4.182,4.182,0,0,1-2.534-.7,2.954,2.954,0,0,1-1.162-2h2.31a1.04,1.04,0,0,0,.427.77,1.608,1.608,0,0,0,.959.266.893.893,0,0,0,.616-.189.637.637,0,0,0,.21-.5.6.6,0,0,0-.385-.581,7.079,7.079,0,0,0-1.253-.371,10.019,10.019,0,0,1-1.428-.392,2.358,2.358,0,0,1-.966-.679,1.892,1.892,0,0,1-.406-1.281,2.09,2.09,0,0,1,.8-1.7A3.477,3.477,0,0,1,47.5,7.09Zm9.352,5.852V15H55.777a3.1,3.1,0,0,1-2.135-.679,2.878,2.878,0,0,1-.763-2.247V9.2h-1.05V7.188h1.05V5.27h2.394V7.188h1.568V9.2H55.273v2.912a.877.877,0,0,0,.189.644.9.9,0,0,0,.637.182ZM61.167,7.09a2.828,2.828,0,0,1,1.54.406A2.441,2.441,0,0,1,63.659,8.6V7.188h2.38V15h-2.38V13.586a2.441,2.441,0,0,1-.952,1.106,2.828,2.828,0,0,1-1.54.406,3.164,3.164,0,0,1-1.729-.483,3.3,3.3,0,0,1-1.2-1.393,4.828,4.828,0,0,1-.441-2.128,4.817,4.817,0,0,1,.441-2.135,3.312,3.312,0,0,1,1.2-1.386A3.164,3.164,0,0,1,61.167,7.09Zm.77,2.1a1.613,1.613,0,0,0-1.239.5,1.976,1.976,0,0,0-.469,1.4,1.976,1.976,0,0,0,.469,1.4,1.758,1.758,0,0,0,2.478-.014,1.951,1.951,0,0,0,.483-1.386A1.946,1.946,0,0,0,63.176,9.7,1.629,1.629,0,0,0,61.937,9.19Zm10.626-2.1a3.164,3.164,0,0,1,1.729.483,3.312,3.312,0,0,1,1.2,1.386,4.817,4.817,0,0,1,.441,2.135,4.828,4.828,0,0,1-.441,2.128,3.3,3.3,0,0,1-1.2,1.393,3.164,3.164,0,0,1-1.729.483,2.828,2.828,0,0,1-1.54-.406,2.358,2.358,0,0,1-.938-1.106V15H67.691V4.64h2.394V8.6A2.358,2.358,0,0,1,71.023,7.5,2.828,2.828,0,0,1,72.563,7.09Zm-.77,2.1a1.629,1.629,0,0,0-1.239.511,1.946,1.946,0,0,0-.483,1.393,1.951,1.951,0,0,0,.483,1.386,1.758,1.758,0,0,0,2.478.014,1.976,1.976,0,0,0,.469-1.4,1.976,1.976,0,0,0-.469-1.4A1.613,1.613,0,0,0,71.793,9.19Zm7.784-4.55V15H77.183V4.64ZM81,4.99a1.169,1.169,0,0,1,.392-.9,1.682,1.682,0,0,1,2.072,0,1.169,1.169,0,0,1,.392.9,1.153,1.153,0,0,1-.392.889,1.682,1.682,0,0,1-2.072,0A1.153,1.153,0,0,1,81,4.99Zm2.618,2.2V15H81.229V7.188Zm4.494-.1a3.584,3.584,0,0,1,2.373.742A3.224,3.224,0,0,1,91.6,9.792h-2.24a1.241,1.241,0,0,0-.441-.749,1.339,1.339,0,0,0-.861-.273.941.941,0,0,0-.616.175.611.611,0,0,0-.21.5.583.583,0,0,0,.385.546,6.139,6.139,0,0,0,1.211.364,12.026,12.026,0,0,1,1.47.427,2.425,2.425,0,0,1,.994.707,1.954,1.954,0,0,1,.42,1.316,2.018,2.018,0,0,1-.364,1.19,2.4,2.4,0,0,1-1.05.812,4.1,4.1,0,0,1-1.624.294,4.182,4.182,0,0,1-2.534-.7,2.954,2.954,0,0,1-1.162-2h2.31a1.04,1.04,0,0,0,.427.77,1.608,1.608,0,0,0,.959.266.893.893,0,0,0,.616-.189.637.637,0,0,0,.21-.5.6.6,0,0,0-.385-.581,7.079,7.079,0,0,0-1.253-.371,10.019,10.019,0,0,1-1.428-.392,2.358,2.358,0,0,1-.966-.679,1.892,1.892,0,0,1-.406-1.281,2.09,2.09,0,0,1,.8-1.7A3.477,3.477,0,0,1,88.117,7.09ZM98,7.1a2.7,2.7,0,0,1,2.135.9,3.594,3.594,0,0,1,.791,2.464V15H98.533V10.744a1.722,1.722,0,0,0-.413-1.225,1.434,1.434,0,0,0-1.1-.441,1.5,1.5,0,0,0-1.155.462,1.869,1.869,0,0,0-.427,1.316V15H93.045V4.64h2.394V8.616a2.577,2.577,0,0,1,1-1.106A2.936,2.936,0,0,1,98,7.1ZM30.136,29.528V33H27.742V23.1H31.62a3.766,3.766,0,0,1,2.688.875,3.1,3.1,0,0,1,.924,2.359,3.25,3.25,0,0,1-.413,1.645,2.863,2.863,0,0,1-1.225,1.134,4.315,4.315,0,0,1-1.974.413Zm1.218-1.918q1.442,0,1.442-1.274,0-1.3-1.442-1.3H30.136V27.61Zm12.474,1.274a3.3,3.3,0,0,1-.07.644H38.34a1.811,1.811,0,0,0,.448,1.267,1.445,1.445,0,0,0,1.036.385,1.416,1.416,0,0,0,.882-.266,1.242,1.242,0,0,0,.462-.686H43.7A3.311,3.311,0,0,1,43.03,31.7a3.582,3.582,0,0,1-1.316,1.022,4.494,4.494,0,0,1-3.815-.112,3.451,3.451,0,0,1-1.393-1.393,4.789,4.789,0,0,1-.007-4.263,3.406,3.406,0,0,1,1.393-1.386,4.6,4.6,0,0,1,4.088-.007A3.363,3.363,0,0,1,43.345,26.9,3.98,3.98,0,0,1,43.828,28.884Zm-2.422-.364a1.439,1.439,0,0,0-.413-1.155,1.52,1.52,0,0,0-1.057-.385,1.568,1.568,0,0,0-1.092.392,1.641,1.641,0,0,0-.49,1.148Zm6.062-1.862a3.4,3.4,0,0,1,1.155-1.134,2.948,2.948,0,0,1,1.533-.42v2.562H49.47a2.366,2.366,0,0,0-1.477.406,1.631,1.631,0,0,0-.525,1.372V33H45.074V25.188h2.394Zm6.538-1.568a3.584,3.584,0,0,1,2.373.742,3.224,3.224,0,0,1,1.113,1.96h-2.24a1.241,1.241,0,0,0-.441-.749,1.339,1.339,0,0,0-.861-.273.941.941,0,0,0-.616.175.611.611,0,0,0-.21.5.583.583,0,0,0,.385.546,6.139,6.139,0,0,0,1.211.364,12.026,12.026,0,0,1,1.47.427,2.425,2.425,0,0,1,.994.707A1.954,1.954,0,0,1,57.6,30.8a2.018,2.018,0,0,1-.364,1.19,2.4,2.4,0,0,1-1.05.812,4.1,4.1,0,0,1-1.624.294,4.182,4.182,0,0,1-2.534-.7,2.954,2.954,0,0,1-1.162-2h2.31a1.04,1.04,0,0,0,.427.77,1.608,1.608,0,0,0,.959.266.893.893,0,0,0,.616-.189.637.637,0,0,0,.21-.5.6.6,0,0,0-.385-.581,7.079,7.079,0,0,0-1.253-.371,10.02,10.02,0,0,1-1.428-.392,2.358,2.358,0,0,1-.966-.679,1.892,1.892,0,0,1-.406-1.281,2.09,2.09,0,0,1,.8-1.7A3.477,3.477,0,0,1,54.006,25.09Zm4.7-2.1a1.169,1.169,0,0,1,.392-.9,1.682,1.682,0,0,1,2.072,0,1.169,1.169,0,0,1,.392.9,1.153,1.153,0,0,1-.392.889,1.682,1.682,0,0,1-2.072,0A1.153,1.153,0,0,1,58.71,22.99Zm2.618,2.2V33H58.934V25.188Zm4.494-.1a3.584,3.584,0,0,1,2.373.742,3.224,3.224,0,0,1,1.113,1.96h-2.24a1.241,1.241,0,0,0-.441-.749,1.339,1.339,0,0,0-.861-.273.941.941,0,0,0-.616.175.611.611,0,0,0-.21.5.583.583,0,0,0,.385.546,6.139,6.139,0,0,0,1.211.364,12.026,12.026,0,0,1,1.47.427,2.425,2.425,0,0,1,.994.707,1.954,1.954,0,0,1,.42,1.316,2.018,2.018,0,0,1-.364,1.19,2.4,2.4,0,0,1-1.05.812,4.1,4.1,0,0,1-1.624.294,4.182,4.182,0,0,1-2.534-.7,2.954,2.954,0,0,1-1.162-2H65a1.04,1.04,0,0,0,.427.77,1.608,1.608,0,0,0,.959.266A.893.893,0,0,0,67,31.243a.637.637,0,0,0,.21-.5.6.6,0,0,0-.385-.581,7.079,7.079,0,0,0-1.253-.371,10.019,10.019,0,0,1-1.428-.392,2.358,2.358,0,0,1-.966-.679,1.892,1.892,0,0,1-.406-1.281,2.09,2.09,0,0,1,.8-1.7A3.477,3.477,0,0,1,65.822,25.09Zm9.352,5.852V33H74.1a3.1,3.1,0,0,1-2.135-.679,2.878,2.878,0,0,1-.763-2.247V27.2h-1.05V25.188H71.2V23.27h2.394v1.918H75.16V27.2H73.592v2.912a.877.877,0,0,0,.189.644.9.9,0,0,0,.637.182Zm8.764-2.058a3.3,3.3,0,0,1-.07.644H78.45A1.811,1.811,0,0,0,78.9,30.8a1.445,1.445,0,0,0,1.036.385,1.416,1.416,0,0,0,.882-.266,1.242,1.242,0,0,0,.462-.686h2.534A3.311,3.311,0,0,1,83.14,31.7a3.582,3.582,0,0,1-1.316,1.022,4.494,4.494,0,0,1-3.815-.112,3.451,3.451,0,0,1-1.393-1.393,4.789,4.789,0,0,1-.007-4.263A3.406,3.406,0,0,1,78,25.573a4.6,4.6,0,0,1,4.088-.007A3.363,3.363,0,0,1,83.455,26.9,3.98,3.98,0,0,1,83.938,28.884Zm-2.422-.364a1.439,1.439,0,0,0-.413-1.155,1.52,1.52,0,0,0-1.057-.385,1.568,1.568,0,0,0-1.092.392,1.641,1.641,0,0,0-.49,1.148ZM90.14,25.1a2.7,2.7,0,0,1,2.135.9,3.594,3.594,0,0,1,.791,2.464V33H90.672V28.744a1.722,1.722,0,0,0-.413-1.225,1.434,1.434,0,0,0-1.1-.441,1.5,1.5,0,0,0-1.155.462,1.869,1.869,0,0,0-.427,1.316V33H85.184V25.188h2.394v1.428a2.577,2.577,0,0,1,1-1.106A2.936,2.936,0,0,1,90.14,25.1Zm8.036-.014a3.88,3.88,0,0,1,2.534.833A3.694,3.694,0,0,1,102,28.212H99.464A1.337,1.337,0,0,0,99,27.428a1.367,1.367,0,0,0-.882-.28,1.279,1.279,0,0,0-1.036.5,2.243,2.243,0,0,0-.406,1.449,2.243,2.243,0,0,0,.406,1.449,1.279,1.279,0,0,0,1.036.5A1.367,1.367,0,0,0,99,30.76a1.337,1.337,0,0,0,.462-.784H102a3.694,3.694,0,0,1-1.288,2.289,3.88,3.88,0,0,1-2.534.833,4.2,4.2,0,0,1-2.037-.483,3.451,3.451,0,0,1-1.393-1.393,4.789,4.789,0,0,1-.007-4.263,3.406,3.406,0,0,1,1.393-1.386A4.239,4.239,0,0,1,98.176,25.09Zm12.488,3.794a3.3,3.3,0,0,1-.07.644h-5.418a1.811,1.811,0,0,0,.448,1.267,1.445,1.445,0,0,0,1.036.385,1.416,1.416,0,0,0,.882-.266,1.242,1.242,0,0,0,.462-.686h2.534a3.311,3.311,0,0,1-.672,1.477,3.582,3.582,0,0,1-1.316,1.022,4.494,4.494,0,0,1-3.815-.112,3.451,3.451,0,0,1-1.393-1.393,4.789,4.789,0,0,1-.007-4.263,3.406,3.406,0,0,1,1.393-1.386,4.6,4.6,0,0,1,4.088-.007,3.363,3.363,0,0,1,1.365,1.337A3.98,3.98,0,0,1,110.664,28.884Zm-2.422-.364a1.439,1.439,0,0,0-.413-1.155,1.52,1.52,0,0,0-1.057-.385,1.568,1.568,0,0,0-1.092.392,1.641,1.641,0,0,0-.49,1.148Z" transform="translate(1128 3979)" fill="#fff"/>
    <path id="Tracciato_632" data-name="Tracciato 632" d="M16.546,7.006V9.078h3.346v1.806H16.546v2.2h3.766V15h-6.16V5.1h6.16v1.9Zm7.966.084a3.584,3.584,0,0,1,2.373.742A3.224,3.224,0,0,1,28,9.792h-2.24a1.241,1.241,0,0,0-.441-.749,1.339,1.339,0,0,0-.861-.273.941.941,0,0,0-.616.175.611.611,0,0,0-.21.5.583.583,0,0,0,.385.546,6.139,6.139,0,0,0,1.211.364,12.026,12.026,0,0,1,1.47.427,2.425,2.425,0,0,1,.994.707,1.954,1.954,0,0,1,.42,1.316,2.018,2.018,0,0,1-.364,1.19,2.4,2.4,0,0,1-1.05.812,4.1,4.1,0,0,1-1.624.294,4.182,4.182,0,0,1-2.534-.7,2.954,2.954,0,0,1-1.162-2h2.31a1.04,1.04,0,0,0,.427.77,1.608,1.608,0,0,0,.959.266.893.893,0,0,0,.616-.189.637.637,0,0,0,.21-.5.6.6,0,0,0-.385-.581,7.079,7.079,0,0,0-1.253-.371,10.019,10.019,0,0,1-1.428-.392,2.358,2.358,0,0,1-.966-.679,1.892,1.892,0,0,1-.406-1.281,2.09,2.09,0,0,1,.8-1.7A3.477,3.477,0,0,1,24.512,7.09Zm8.456,0a3.88,3.88,0,0,1,2.534.833,3.694,3.694,0,0,1,1.288,2.289H34.256a1.337,1.337,0,0,0-.462-.784,1.367,1.367,0,0,0-.882-.28,1.279,1.279,0,0,0-1.036.5,2.243,2.243,0,0,0-.406,1.449,2.243,2.243,0,0,0,.406,1.449,1.279,1.279,0,0,0,1.036.5,1.367,1.367,0,0,0,.882-.28,1.337,1.337,0,0,0,.462-.784H36.79A3.694,3.694,0,0,1,35.5,14.265a3.88,3.88,0,0,1-2.534.833,4.2,4.2,0,0,1-2.037-.483,3.451,3.451,0,0,1-1.393-1.393,4.322,4.322,0,0,1-.5-2.128,4.361,4.361,0,0,1,.5-2.135,3.406,3.406,0,0,1,1.393-1.386A4.239,4.239,0,0,1,32.968,7.09ZM41,7.09a2.828,2.828,0,0,1,1.54.406A2.441,2.441,0,0,1,43.5,8.6V7.188h2.38V15H43.5V13.586a2.441,2.441,0,0,1-.952,1.106A2.828,2.828,0,0,1,41,15.1a3.164,3.164,0,0,1-1.729-.483,3.3,3.3,0,0,1-1.2-1.393,4.828,4.828,0,0,1-.441-2.128,4.817,4.817,0,0,1,.441-2.135,3.312,3.312,0,0,1,1.2-1.386A3.164,3.164,0,0,1,41,7.09Zm.77,2.1a1.613,1.613,0,0,0-1.239.5,1.976,1.976,0,0,0-.469,1.4,1.976,1.976,0,0,0,.469,1.4,1.758,1.758,0,0,0,2.478-.014,1.951,1.951,0,0,0,.483-1.386A1.946,1.946,0,0,0,43.013,9.7,1.629,1.629,0,0,0,41.774,9.19Zm8.148-4.55V15H47.528V4.64Zm4.62,2.45a2.828,2.828,0,0,1,1.54.406A2.441,2.441,0,0,1,57.034,8.6V7.188h2.38V15h-2.38V13.586a2.441,2.441,0,0,1-.952,1.106,2.828,2.828,0,0,1-1.54.406,3.164,3.164,0,0,1-1.729-.483,3.3,3.3,0,0,1-1.2-1.393,4.828,4.828,0,0,1-.441-2.128,4.817,4.817,0,0,1,.441-2.135,3.312,3.312,0,0,1,1.2-1.386A3.164,3.164,0,0,1,54.542,7.09Zm.77,2.1a1.613,1.613,0,0,0-1.239.5,1.976,1.976,0,0,0-.469,1.4,1.976,1.976,0,0,0,.469,1.4,1.758,1.758,0,0,0,2.478-.014,1.951,1.951,0,0,0,.483-1.386A1.946,1.946,0,0,0,56.551,9.7,1.629,1.629,0,0,0,55.312,9.19ZM65.49,12.942V15H64.412a3.1,3.1,0,0,1-2.135-.679,2.878,2.878,0,0,1-.763-2.247V9.2h-1.05V7.188h1.05V5.27h2.394V7.188h1.568V9.2H63.908v2.912a.877.877,0,0,0,.189.644.9.9,0,0,0,.637.182Zm8.764-2.058a3.3,3.3,0,0,1-.07.644H68.766a1.811,1.811,0,0,0,.448,1.267,1.445,1.445,0,0,0,1.036.385,1.416,1.416,0,0,0,.882-.266,1.242,1.242,0,0,0,.462-.686h2.534a3.311,3.311,0,0,1-.672,1.477,3.582,3.582,0,0,1-1.316,1.022,4.494,4.494,0,0,1-3.815-.112,3.451,3.451,0,0,1-1.393-1.393,4.322,4.322,0,0,1-.5-2.128,4.361,4.361,0,0,1,.5-2.135,3.406,3.406,0,0,1,1.393-1.386,4.6,4.6,0,0,1,4.088-.007A3.363,3.363,0,0,1,73.771,8.9,3.98,3.98,0,0,1,74.254,10.884Zm-2.422-.364a1.439,1.439,0,0,0-.413-1.155,1.52,1.52,0,0,0-1.057-.385,1.568,1.568,0,0,0-1.092.392,1.641,1.641,0,0,0-.49,1.148ZM12.052,29.528V33H9.658V23.1h3.878a3.766,3.766,0,0,1,2.688.875,3.1,3.1,0,0,1,.924,2.359,3.25,3.25,0,0,1-.413,1.645,2.863,2.863,0,0,1-1.225,1.134,4.315,4.315,0,0,1-1.974.413ZM13.27,27.61q1.442,0,1.442-1.274,0-1.3-1.442-1.3H12.052V27.61Zm7.448-.952a3.4,3.4,0,0,1,1.155-1.134,2.948,2.948,0,0,1,1.533-.42v2.562H22.72a2.366,2.366,0,0,0-1.477.406,1.631,1.631,0,0,0-.525,1.372V33H18.324V25.188h2.394ZM24.19,22.99a1.169,1.169,0,0,1,.392-.9,1.682,1.682,0,0,1,2.072,0,1.169,1.169,0,0,1,.392.9,1.153,1.153,0,0,1-.392.889,1.682,1.682,0,0,1-2.072,0A1.153,1.153,0,0,1,24.19,22.99Zm2.618,2.2V33H24.414V25.188Zm5.264,5.474,1.694-5.474h2.548L33.542,33H30.574L27.8,25.188H30.35Zm5.012-7.672a1.169,1.169,0,0,1,.392-.9,1.682,1.682,0,0,1,2.072,0,1.169,1.169,0,0,1,.392.9,1.153,1.153,0,0,1-.392.889,1.682,1.682,0,0,1-2.072,0A1.153,1.153,0,0,1,37.084,22.99Zm2.618,2.2V33H37.308V25.188Zm4.046-2.548V33H41.354V22.64Zm9.072,6.244a3.3,3.3,0,0,1-.07.644H47.332A1.811,1.811,0,0,0,47.78,30.8a1.445,1.445,0,0,0,1.036.385,1.416,1.416,0,0,0,.882-.266,1.242,1.242,0,0,0,.462-.686h2.534a3.311,3.311,0,0,1-.672,1.477,3.582,3.582,0,0,1-1.316,1.022,4.494,4.494,0,0,1-3.815-.112A3.451,3.451,0,0,1,45.5,31.222a4.789,4.789,0,0,1-.007-4.263,3.406,3.406,0,0,1,1.393-1.386,4.6,4.6,0,0,1,4.088-.007A3.363,3.363,0,0,1,52.337,26.9,3.98,3.98,0,0,1,52.82,28.884ZM50.4,28.52a1.439,1.439,0,0,0-.413-1.155,1.52,1.52,0,0,0-1.057-.385,1.568,1.568,0,0,0-1.092.392,1.641,1.641,0,0,0-.49,1.148Zm6.636-3.43a2.828,2.828,0,0,1,1.54.406,2.441,2.441,0,0,1,.952,1.106V25.188h2.38v7.77a4.488,4.488,0,0,1-.42,1.967A3.221,3.221,0,0,1,60.2,36.318a4.144,4.144,0,0,1-2.156.518A4.432,4.432,0,0,1,55.221,36a3.389,3.389,0,0,1-1.267-2.261H56.32a1.186,1.186,0,0,0,.511.742,1.849,1.849,0,0,0,1.043.266,1.678,1.678,0,0,0,1.2-.427,1.8,1.8,0,0,0,.455-1.365V31.586a2.441,2.441,0,0,1-.952,1.106,2.828,2.828,0,0,1-1.54.406,3.164,3.164,0,0,1-1.729-.483,3.3,3.3,0,0,1-1.2-1.393,5.372,5.372,0,0,1,0-4.263,3.312,3.312,0,0,1,1.2-1.386A3.164,3.164,0,0,1,57.034,25.09Zm.77,2.1a1.613,1.613,0,0,0-1.239.5,2.324,2.324,0,0,0,0,2.8,1.758,1.758,0,0,0,2.478-.014,2.24,2.24,0,0,0,0-2.779A1.629,1.629,0,0,0,57.8,27.19Zm13.174,1.694a3.3,3.3,0,0,1-.07.644H65.49a1.811,1.811,0,0,0,.448,1.267,1.445,1.445,0,0,0,1.036.385,1.416,1.416,0,0,0,.882-.266,1.242,1.242,0,0,0,.462-.686h2.534A3.311,3.311,0,0,1,70.18,31.7a3.582,3.582,0,0,1-1.316,1.022,4.494,4.494,0,0,1-3.815-.112,3.451,3.451,0,0,1-1.393-1.393,4.789,4.789,0,0,1-.007-4.263,3.406,3.406,0,0,1,1.393-1.386,4.6,4.6,0,0,1,4.088-.007A3.363,3.363,0,0,1,70.5,26.9,3.98,3.98,0,0,1,70.978,28.884Zm-2.422-.364a1.439,1.439,0,0,0-.413-1.155,1.52,1.52,0,0,0-1.057-.385,1.568,1.568,0,0,0-1.092.392,1.641,1.641,0,0,0-.49,1.148Zm6.51-3.43a3.584,3.584,0,0,1,2.373.742,3.224,3.224,0,0,1,1.113,1.96h-2.24a1.241,1.241,0,0,0-.441-.749,1.339,1.339,0,0,0-.861-.273.941.941,0,0,0-.616.175.611.611,0,0,0-.21.5.583.583,0,0,0,.385.546,6.139,6.139,0,0,0,1.211.364,12.026,12.026,0,0,1,1.47.427,2.425,2.425,0,0,1,.994.707,1.954,1.954,0,0,1,.42,1.316,2.018,2.018,0,0,1-.364,1.19,2.4,2.4,0,0,1-1.05.812,4.1,4.1,0,0,1-1.624.294,4.182,4.182,0,0,1-2.534-.7,2.954,2.954,0,0,1-1.162-2h2.31a1.04,1.04,0,0,0,.427.77,1.608,1.608,0,0,0,.959.266.893.893,0,0,0,.616-.189.637.637,0,0,0,.21-.5.6.6,0,0,0-.385-.581,7.079,7.079,0,0,0-1.253-.371,10.019,10.019,0,0,1-1.428-.392,2.358,2.358,0,0,1-.966-.679,1.892,1.892,0,0,1-.406-1.281,2.09,2.09,0,0,1,.8-1.7A3.477,3.477,0,0,1,75.066,25.09Z" transform="translate(1336 3979)" fill="#fff"/>
  </g>
</svg>
